<svg width="868" height="290" viewBox="0 0 868 290" fill="none" xmlns="http://www.w3.org/2000/svg">
	<path d="M798.442 0H69.0925C66.4825 0 63.8725 0 61.19 0C58.9425 0 56.7675 0.0725 54.52 0.0725C49.6625 0.2175 44.805 0.5075 40.02 1.3775C35.1625 2.2475 30.6675 3.6975 26.245 5.945C21.895 8.12 17.9075 11.02 14.5 14.5C11.02 17.9075 8.12 21.895 5.945 26.245C3.6975 30.6675 2.2475 35.1625 1.3775 40.02C0.5075 44.805 0.2175 49.6625 0.0725 54.52C0.0725 56.7675 0 59.015 0 61.19C0 63.8 0 66.4825 0 69.0925V220.835C0 223.517 0 226.127 0 228.737C0 230.985 0.0725 233.16 0.145 235.408C0.29 240.265 0.58 245.123 1.45 249.908C2.32 254.765 3.6975 259.332 6.0175 263.682C8.1925 268.032 11.0925 271.947 14.5725 275.355C17.98 278.835 21.9675 281.735 26.3175 283.91C30.74 286.157 35.235 287.608 40.0925 288.478C44.8775 289.348 49.8075 289.638 54.5925 289.783C56.7675 289.928 58.9425 290 61.19 290C63.8725 290 66.4825 290 69.0925 290H798.442C801.052 290 803.662 290 806.272 290C808.447 290 810.767 290 812.942 289.928C817.8 289.783 822.657 289.493 827.442 288.623C832.3 287.753 836.795 286.303 841.29 284.055C845.64 281.88 849.555 278.98 853.035 275.5C856.515 272.093 859.342 268.105 861.59 263.827C863.837 259.405 865.287 254.91 866.085 250.053C866.955 245.268 867.245 240.41 867.463 235.553C867.463 233.305 867.463 231.13 867.463 228.882C867.535 226.272 867.535 223.662 867.535 220.98V69.165C867.535 66.4825 867.535 63.8725 867.463 61.2625C867.463 59.015 867.463 56.84 867.463 54.5925C867.318 49.735 867.027 44.8775 866.085 40.0925C865.287 35.235 863.837 30.74 861.59 26.3175C859.342 21.9675 856.443 17.98 853.035 14.5725C849.628 11.165 845.64 8.265 841.29 6.0175C836.795 3.77 832.3 2.32 827.442 1.45C822.657 0.58 817.8 0.29 812.942 0.145C810.767 0.145 808.447 0.0725 806.272 0.0725C803.735 0 801.052 0 798.442 0Z" fill="white"/>
	<path d="M61.1901 283.62C59.0151 283.62 56.8401 283.62 54.6651 283.548C50.6051 283.403 45.8201 283.185 41.1076 282.388C36.6851 281.59 32.7701 280.285 29.0726 278.4C25.3026 276.515 21.8951 273.978 18.9226 271.005C15.9501 268.033 13.4851 264.697 11.5276 260.855C9.64256 257.23 8.33756 253.242 7.61256 248.82C6.74256 243.962 6.52506 238.96 6.38006 235.19C6.30756 233.668 6.30756 228.593 6.30756 228.593V61.19C6.30756 61.19 6.38006 56.1875 6.38006 54.7375C6.52506 50.9675 6.74256 45.965 7.61256 41.18C8.41006 36.685 9.71506 32.77 11.6001 29.145C13.5576 25.375 16.0226 21.9675 18.9951 18.995C21.9676 15.95 25.3751 13.485 29.0726 11.6C32.7701 9.71501 36.7576 8.41 41.0351 7.685C45.9651 6.7425 50.8951 6.525 54.6651 6.4525L61.1901 6.38H806.273L812.87 6.4525C816.568 6.525 821.57 6.7425 826.355 7.6125C830.705 8.41 834.693 9.64251 838.463 11.6C842.16 13.485 845.568 16.0225 848.54 18.995C851.513 21.9675 853.978 25.375 855.935 29.145C857.82 32.8425 859.053 36.7575 859.85 41.1075C860.72 45.675 860.938 50.3875 861.083 54.81C861.083 56.84 861.083 59.0875 861.083 61.2625C861.155 64.0175 861.155 66.555 861.155 69.165V220.908C861.155 223.518 861.155 226.128 861.083 228.738C861.083 231.13 861.083 233.233 861.083 235.48C860.938 239.758 860.648 244.47 859.85 248.893C859.125 253.315 857.82 257.302 855.935 261C853.978 264.77 851.513 268.177 848.54 271.077C845.568 274.122 842.16 276.587 838.39 278.472C834.62 280.357 830.778 281.662 826.283 282.46C821.643 283.33 816.858 283.547 812.725 283.62C810.623 283.692 808.375 283.693 806.2 283.693H798.37L61.1901 283.62Z" fill="#000001"/>
	<path fill-rule="evenodd" clip-rule="evenodd" d="M311.54 161.409H270.83V173.422H299.7C298.27 190.269 284.18 197.459 270.87 197.459C253.85 197.459 238.99 184.143 238.99 165.476C238.99 147.287 253.15 133.285 270.9 133.285C284.6 133.285 292.67 141.967 292.67 141.967L301.13 133.255C301.13 133.255 290.27 121.232 270.47 121.232C245.25 121.232 225.75 142.395 225.75 165.258C225.75 187.653 244.1 209.502 271.12 209.502C294.88 209.502 312.27 193.312 312.27 169.375C312.27 164.323 311.53 161.409 311.54 161.409Z" fill="white" stroke="white" stroke-miterlimit="10"/>
	<path fill-rule="evenodd" clip-rule="evenodd" d="M346.31 163.855C354.53 163.855 362.31 170.459 362.31 181.099C362.31 191.522 354.56 198.314 346.27 198.314C337.17 198.314 329.98 191.064 329.98 181.02C329.98 171.194 337.08 163.855 346.31 163.855ZM346.14 152.707C329.43 152.707 317.46 165.695 317.46 180.841C317.46 196.215 329.07 209.442 346.33 209.442C361.96 209.442 374.76 197.568 374.76 181.169C374.77 162.383 359.88 152.707 346.14 152.707Z" fill="white" stroke="white" stroke-miterlimit="10"/>
	<path fill-rule="evenodd" clip-rule="evenodd" d="M409.36 163.855C417.58 163.855 425.36 170.459 425.36 181.099C425.36 191.522 417.61 198.314 409.32 198.314C400.22 198.314 393.03 191.064 393.03 181.02C393.03 171.194 400.13 163.855 409.36 163.855ZM409.19 152.707C392.48 152.707 380.51 165.695 380.51 180.841C380.51 196.215 392.12 209.442 409.38 209.442C425.01 209.442 437.81 197.568 437.81 181.169C437.82 162.383 422.93 152.707 409.19 152.707Z" fill="white" stroke="white" stroke-miterlimit="10"/>
	<path fill-rule="evenodd" clip-rule="evenodd" d="M472.06 163.865C479.58 163.865 487.3 170.25 487.3 181.149C487.3 192.228 479.6 198.334 471.9 198.334C463.73 198.334 456.12 191.73 456.12 181.249C456.11 170.359 464.01 163.865 472.06 163.865ZM470.95 152.737C455.62 152.737 443.56 166.093 443.56 181.08C443.56 198.155 457.53 209.482 470.68 209.482C478.81 209.482 483.13 206.27 486.33 202.59V208.179C486.33 217.965 480.35 223.832 471.33 223.832C462.62 223.832 458.25 217.388 456.73 213.728L445.77 218.293C449.66 226.467 457.49 235 471.43 235C486.68 235 498.3 225.453 498.3 205.424V154.448H486.34V159.251C482.65 155.313 477.62 152.737 470.95 152.737Z" fill="white" stroke="white" stroke-miterlimit="10"/>
	<path fill-rule="evenodd" clip-rule="evenodd" d="M554.48 163.587C559.69 163.587 563.44 166.341 565.04 169.643L539.49 180.264C538.39 172.04 546.23 163.587 554.48 163.587ZM553.98 152.677C539.52 152.677 527.37 164.124 527.37 181.01C527.37 198.881 540.91 209.472 555.37 209.472C567.44 209.472 574.85 202.908 579.27 197.021L569.41 190.497C566.85 194.445 562.57 198.304 555.43 198.304C547.41 198.304 543.72 193.938 541.44 189.702L579.69 173.919L577.7 169.295C574.01 160.235 565.39 152.677 553.98 152.677Z" fill="white" stroke="white" stroke-miterlimit="10"/>
	<path d="M520.44 124.166H507.88V207.781H520.44V124.166Z" fill="white" stroke="white" stroke-miterlimit="10"/>
	<path d="M688.9 124.166H676.34V207.781H688.9V124.166Z" fill="white" stroke="white" stroke-miterlimit="10"/>
	<path d="M622.27 124.166H609.71V207.781H622.27V124.166Z" fill="white" stroke="white" stroke-miterlimit="10"/>
	<path fill-rule="evenodd" clip-rule="evenodd" d="M609.71 124.166H640.1C654.83 124.166 666.89 136.149 666.89 150.808C666.89 165.456 654.84 177.45 640.1 177.45H609.71V124.166ZM622.28 136.666V164.949H640.11C647.91 164.949 654.33 158.565 654.33 150.808C654.33 143.051 647.91 136.666 640.11 136.666H622.28Z" fill="white" stroke="white" stroke-miterlimit="10"/>
	<path fill-rule="evenodd" clip-rule="evenodd" d="M781.67 235L818.05 152.677H804.33L767.95 235H781.67Z" fill="white" stroke="white" stroke-miterlimit="10"/>
	<path fill-rule="evenodd" clip-rule="evenodd" d="M785.73 216.155L757.68 152.677H771.4L790.75 196.464H785.73V216.155Z" fill="white" stroke="white" stroke-miterlimit="10"/>
	<path fill-rule="evenodd" clip-rule="evenodd" d="M740.33 207.791H752.89V177.718C754.86 146.701 715.31 139.401 700.35 161.767L710.46 168.509C717.78 155.79 738.65 158.714 740.03 172.348C733.76 170.697 726.98 169.494 720.78 170.121C711.11 171.095 702.84 177.201 701.52 187.196C700.81 192.596 702.02 199.259 705.81 203.316C711.72 209.641 721.43 210.496 729.4 208.328C733.89 207.115 737.42 204.46 740.32 201.029V207.791H740.33ZM740.33 183.616C738.72 190.567 733.3 195.569 726.42 197.429C711.89 201.367 708.28 177.887 729.87 181.119C733.58 181.567 736.81 182.482 740.33 183.616Z" fill="white" stroke="white" stroke-miterlimit="10"/>
	<path fill-rule="evenodd" clip-rule="evenodd" d="M267.33 73.2884H248.8V78.758H261.94C261.29 86.4254 254.88 89.6972 248.82 89.6972C241.07 89.6972 234.31 83.6409 234.31 75.1381C234.31 66.8641 240.75 60.4895 248.83 60.4895C255.06 60.4895 258.74 64.4376 258.74 64.4376L262.59 60.4696C262.59 60.4696 257.65 55 248.64 55C237.16 55 228.29 64.6365 228.29 75.0387C228.29 85.232 236.64 95.1768 248.93 95.1768C259.74 95.1768 267.66 87.8077 267.66 76.9182C267.67 74.621 267.33 73.2884 267.33 73.2884Z" fill="white" stroke="white" stroke-miterlimit="10"/>
	<path d="M348.78 56.3427H343.06V94.4012H348.78V56.3427Z" fill="white" stroke="white" stroke-miterlimit="10"/>
	<path fill-rule="evenodd" clip-rule="evenodd" d="M311.04 94.3913H316.76V62.031H326.15V56.3427C317.99 56.3427 309.82 56.3427 301.66 56.3427V62.031H311.05V94.3913H311.04Z" fill="white" stroke="white" stroke-miterlimit="10"/>
	<path fill-rule="evenodd" clip-rule="evenodd" d="M273.7 94.3913H295.63V88.7029H279.42V78.2112H293.68V72.5228H279.42V62.031H295.63V56.3427H273.7C273.7 69.0222 273.7 81.7117 273.7 94.3913Z" fill="white" stroke="white" stroke-miterlimit="10"/>
	<path fill-rule="evenodd" clip-rule="evenodd" d="M362.82 94.3913H368.54V62.031H377.93V56.3427C369.77 56.3427 361.6 56.3427 353.44 56.3427V62.031H362.83V94.3913H362.82Z" fill="white" stroke="white" stroke-miterlimit="10"/>
	<path fill-rule="evenodd" clip-rule="evenodd" d="M412.99 89.6874C405.32 89.5979 398.66 83.5614 398.66 75.1282C398.66 66.9238 405 60.5791 412.99 60.4796C420.98 60.5791 427.32 66.9139 427.32 75.1282C427.31 83.5713 420.66 89.5979 412.99 89.6874ZM412.99 55.01C401.51 55.01 392.64 64.6365 392.64 75.0487C392.64 85.1625 400.86 95.0277 412.99 95.1769C425.12 95.0177 433.34 85.1625 433.34 75.0487C433.34 64.6365 424.46 55.01 412.99 55.01Z" fill="white" stroke="white" stroke-miterlimit="10"/>
	<path fill-rule="evenodd" clip-rule="evenodd" d="M439.05 94.3913H444.77V66.6752L463.14 94.3913H468.84V56.3427H463.13V84.0487L444.77 56.3427H439.05V94.3913Z" fill="white" stroke="white" stroke-miterlimit="10"/>
	<path fill-rule="evenodd" clip-rule="evenodd" d="M77.8002 231.35C78.3502 231.142 78.9202 230.883 79.5102 230.565L158.09 187.792L139.46 169.295L77.8002 231.35ZM161.57 185.903L142.14 166.61L161.55 147.069L188.29 161.568C194.88 165.138 191.51 169.603 188.29 171.364L161.57 185.903ZM158.08 145.179L79.5202 102.556C78.6802 102.098 77.7302 101.82 76.7802 101.701L139.45 163.935L158.08 145.179ZM72.1702 102.466L136.77 166.62L72.4802 231.331C70.6002 230.147 69.6002 227.581 69.5802 224.26C69.5502 217.905 69.0402 116.976 69.0002 109.408C68.9802 105.778 70.3002 103.56 72.1702 102.466Z" fill="white" stroke="white" stroke-miterlimit="10"/>
</svg>